<svg width="22" height="22" viewBox="0 0 22 22" fill="none" xmlns="http://www.w3.org/2000/svg">
<path d="M17 12.9615V10.6731C17 9.89273 16.7155 9.14434 16.2092 8.59255C15.7028 8.04076 15.0161 7.73077 14.3 7.73077H13.1C12.8613 7.73077 12.6324 7.62744 12.4636 7.44351C12.2948 7.25958 12.2 7.01012 12.2 6.75V5.44231C12.2 4.66196 11.9155 3.91357 11.4092 3.36178C10.9028 2.80999 10.2161 2.5 9.5 2.5H8M9.8 2.5H5.9C5.4032 2.5 5 2.93938 5 3.48077V18.5192C5 19.0606 5.4032 19.5 5.9 19.5H16.1C16.5968 19.5 17 19.0606 17 18.5192V10.3462C17 8.26522 16.2414 6.26952 14.8912 4.79809C13.5409 3.32665 11.7096 2.5 9.8 2.5Z" stroke="#540D6E" stroke-width="1.5" stroke-linecap="round" stroke-linejoin="round"/>
</svg>
